<?xml version="1.0" encoding="UTF-8"?>
<svg width="18px" height="18px" viewBox="0 0 18 18" version="1.1" xmlns="http://www.w3.org/2000/svg" xmlns:xlink="http://www.w3.org/1999/xlink">
    <!-- Generator: Sketch 45.2 (43514) - http://www.bohemiancoding.com/sketch -->
    <title>instagram</title>
    <desc>Created with Sketch.</desc>
    <defs></defs>
    <g id="Page-1" stroke="none" stroke-width="1" fill="none" fill-rule="evenodd">
        <g id="instagram" fill="#000000">
            <path d="M9.13989349,1 C6.92941829,1 6.6520067,1.00967321 5.78382374,1.0492146 C4.91733646,1.08892569 4.32588682,1.22621746 3.80836838,1.42765791 C3.27304542,1.63571687 2.81894503,1.91403392 2.36654032,2.36697795 C1.91379648,2.81975228 1.63570662,3.27422366 1.42713923,3.80981428 C1.22535452,4.32792522 1.08800526,4.92002778 1.04900486,5.78688357 C1.01017402,6.65577583 1,6.93358376 1,9.1458649 C1,11.358146 1.00983489,11.6349357 1.04917443,12.503828 C1.08902267,13.3710232 1.22620236,13.9629561 1.4273088,14.4808973 C1.63536749,15.0166576 1.91345734,15.471129 2.36603162,15.9239033 C2.81826677,16.3770171 3.27236715,16.6560129 3.80735098,16.8640719 C4.32520855,17.0655124 4.91682776,17.2028041 5.78314548,17.2425152 C6.65132843,17.2820566 6.92857045,17.2917298 9.13887608,17.2917298 C11.3495209,17.2917298 11.6260846,17.2820566 12.4942676,17.2425152 C13.3607548,17.2028041 13.9528828,17.0655124 14.4707403,16.8640719 C15.0058937,16.6560129 15.4593158,16.3770171 15.911551,15.9239033 C16.3642948,15.471129 16.6423847,15.0166576 16.8509521,14.481067 C17.0510411,13.9629561 17.1883904,13.3708535 17.2290864,12.5039977 C17.2680869,11.6351055 17.2782609,11.358146 17.2782609,9.1458649 C17.2782609,6.93358376 17.2680869,6.65594553 17.2290864,5.78705328 C17.1883904,4.91985807 17.0510411,4.32792522 16.8509521,3.80998398 C16.6423847,3.27422366 16.3642948,2.81975228 15.911551,2.36697795 C15.4588071,1.91386422 15.0060633,1.63554717 14.4702316,1.42765791 C13.9513566,1.22621746 13.3595679,1.08892569 12.4930806,1.0492146 C11.6248976,1.00967321 11.3485034,1 9.13734998,1 L9.13989349,1 Z M8.40973805,2.46795274 C8.62644466,2.46761333 8.86824718,2.46795274 9.13989349,2.46795274 C11.3130639,2.46795274 11.5706362,2.47575919 12.4288147,2.51479146 C13.2223882,2.55110844 13.6530883,2.68381816 13.9399957,2.79531468 C14.3198257,2.94295849 14.5906242,3.11945222 14.8753271,3.4045575 C15.1601997,3.68966277 15.3365493,3.9611916 15.4844117,4.34133196 C15.5958173,4.62813429 15.7285882,5.0591863 15.764706,5.85340813 C15.8037064,6.71211806 15.8121847,6.97007045 15.8121847,9.14399814 C15.8121847,11.3179258 15.8037064,11.5758782 15.764706,12.4345882 C15.7284186,13.22881 15.5958173,13.659862 15.4844117,13.9466643 C15.3368885,14.3268047 15.1601997,14.597485 14.8753271,14.8824206 C14.5904546,15.1675258 14.3199953,15.3440196 13.9399957,15.4916634 C13.6534275,15.603669 13.2223882,15.7360393 12.4288147,15.7723563 C11.5708058,15.8113886 11.3130639,15.8198738 9.13989349,15.8198738 C6.96655346,15.8198738 6.70898121,15.8113886 5.85097227,15.7723563 C5.05739879,15.7356999 4.62669865,15.6029902 4.33962174,15.4914937 C3.9597917,15.3438499 3.68848453,15.1673561 3.40361199,14.8822509 C3.11873946,14.5971456 2.9423898,14.3262956 2.79452739,13.9459855 C2.68312188,13.6591832 2.55035093,13.2281312 2.51423316,12.4339093 C2.47523276,11.5751994 2.46743268,11.317247 2.46743268,9.14196168 C2.46743268,6.96667634 2.47523276,6.71008159 2.51423316,5.85137167 C2.5505205,5.05714984 2.68312188,4.62609782 2.79452739,4.33895608 C2.94205066,3.95881572 3.11873946,3.68728689 3.40361199,3.40218162 C3.68848453,3.11707635 3.9597917,2.94058261 4.33962174,2.7925994 C4.62652908,2.68059375 5.05739879,2.54822345 5.85097227,2.51173676 C6.60181487,2.47779566 6.89279182,2.46761333 8.40973805,2.46591627 L8.40973805,2.46795274 Z M13.4845387,3.82050572 C12.9453157,3.82050572 12.5078329,4.25783685 12.5078329,4.7976701 C12.5078329,5.33733365 12.9453157,5.77517389 13.4845387,5.77517389 C14.0237618,5.77517389 14.4612446,5.33733365 14.4612446,4.7976701 C14.4612446,4.25800655 14.0237618,3.82016631 13.4845387,3.82016631 L13.4845387,3.82050572 Z M9.13989349,4.96262386 C6.83157814,4.96262386 4.96006734,6.83566368 4.96006734,9.1458649 C4.96006734,11.4560661 6.83157814,13.3282574 9.13989349,13.3282574 C11.4482088,13.3282574 13.3190414,11.4560661 13.3190414,9.1458649 C13.3190414,6.83566368 11.4480393,4.96262386 9.13972392,4.96262386 L9.13989349,4.96262386 Z M9.13989349,6.4305766 C10.6381874,6.4305766 11.8529652,7.64617723 11.8529652,9.1458649 C11.8529652,10.6453829 10.6381874,11.8611532 9.13989349,11.8611532 C7.64143005,11.8611532 6.42682175,10.6453829 6.42682175,9.1458649 C6.42682175,7.64617723 7.64143005,6.4305766 9.13989349,6.4305766 L9.13989349,6.4305766 Z" id="Shape"></path>
        </g>
    </g>
</svg>