<?xml version="1.0" encoding="UTF-8"?>
<svg width="18px" height="18px" viewBox="0 0 18 18" version="1.1" xmlns="http://www.w3.org/2000/svg" xmlns:xlink="http://www.w3.org/1999/xlink">
    <!-- Generator: Sketch 45.2 (43514) - http://www.bohemiancoding.com/sketch -->
    <title>youtube</title>
    <desc>Created with Sketch.</desc>
    <defs></defs>
    <g id="Page-1" stroke="none" stroke-width="1" fill="none" fill-rule="evenodd">
        <g id="youtube" fill="#000000">
            <path d="M17.40925,5.52587675 C17.40925,5.52587675 17.575,6.87335786 17.575,8.22031871 L17.575,9.48351722 C17.575,10.8309983 17.40925,12.1779592 17.40925,12.1779592 C17.40925,12.1779592 17.2471258,13.325139 16.7503938,13.8303144 C16.1200258,14.4936497 15.4135164,14.4967713 15.0897859,14.535791 C12.7703219,14.7043562 9.2875,14.7095588 9.2875,14.7095588 C9.2875,14.7095588 4.978,14.6700188 3.652,14.5420341 C3.28320625,14.4728392 2.45497422,14.4936497 1.82408828,13.8303144 C1.32735625,13.325139 1.16575,12.1779592 1.16575,12.1779592 C1.16575,12.1779592 1,10.8309983 1,9.48351722 L1,8.22031871 C1,6.87335786 1.16575,5.52587675 1.16575,5.52587675 C1.16575,5.52587675 1.32735625,4.37869689 1.82408828,3.87352154 C2.45497422,3.21018624 3.16096562,3.20706466 3.48521406,3.1685652 C5.80467813,3 9.28387422,3 9.28387422,3 L9.29112578,3 C9.29112578,3 12.7703219,3 15.0897859,3.1685652 C15.4135164,3.20706466 16.1200258,3.21018624 16.7503938,3.87352154 C17.2471258,4.37869689 17.40925,5.52587675 17.40925,5.52587675 Z M7.57613125,11.0141309 L12.0539711,8.68335276 L7.57561328,6.33644647 L7.57613125,11.0141309 Z" id="Combined-Shape"></path>
        </g>
    </g>
</svg>